<svg width="502" height="163" viewBox="0 0 502 163" fill="none" xmlns="http://www.w3.org/2000/svg">
<g clip-path="url(#clip0_227_954)">
<path d="M55.7071 102.967C49.8443 109.304 41.4224 113.278 32.0645 113.278C25.7071 113.278 19.7826 111.444 14.7991 108.283V81.5073C14.7991 90.9575 22.5291 98.6184 32.0645 98.6184C41.6 98.6184 49.33 90.9575 49.33 81.5073V83.9444C49.33 91.0785 51.7015 97.6639 55.7071 102.967Z" fill="url(#paint0_linear_227_954)"/>
<path fill-rule="evenodd" clip-rule="evenodd" d="M49.3299 54.7174V81.5073C49.3299 72.0571 41.5999 64.3962 32.0644 64.3962C22.5314 64.3962 14.8027 72.0534 14.799 81.4999V110.833C14.799 125.5 0 125.5 0 125.5V81.4999C0 63.9501 14.355 49.7222 32.0644 49.7222C38.4218 49.7222 44.3463 51.5555 49.3299 54.7174Z" fill="url(#paint1_linear_227_954)"/>
<path fill-rule="evenodd" clip-rule="evenodd" d="M78.9278 52.1667V66.8333H64.1288V81.5C64.1288 74.3659 61.7573 67.7806 57.7517 62.4773C55.4406 59.4169 52.5856 56.7842 49.3298 54.7174V37.5C49.3298 37.5 63.6047 37.5 64.114 52.1667H78.9278Z" fill="url(#paint2_linear_227_954)"/>
<path fill-rule="evenodd" clip-rule="evenodd" d="M64.1288 81.5C64.1288 82.3225 64.0967 83.1377 64.0351 83.9444C63.4739 91.2545 60.418 97.8741 55.707 102.967C51.7014 97.6639 49.3298 91.0785 49.3298 83.9444V54.7174C52.5856 56.7842 55.4406 59.4169 57.7517 62.4773C61.7573 67.7805 64.1288 74.3659 64.1288 81.5Z" fill="url(#paint3_linear_227_954)"/>
<path fill-rule="evenodd" clip-rule="evenodd" d="M64.1289 81.5C64.1289 83.0583 64.1289 83.9444 64.1289 83.9444H64.0352C64.0968 83.1378 64.1289 82.3226 64.1289 81.5Z" fill="#ED1C24"/>
<path fill-rule="evenodd" clip-rule="evenodd" d="M78.9278 100.889V115.629C69.4331 114.914 61.0926 110.099 55.707 102.967C60.418 97.8741 63.474 91.2546 64.0352 83.9444C64.0968 83.1378 64.1289 82.3226 64.1289 81.5C64.1289 83.0583 64.1289 83.9444 64.1289 83.9444V83.9518C64.1289 92.5721 70.5603 99.7038 78.9278 100.889Z" fill="url(#paint4_linear_227_954)"/>
</g>
<path d="M133.04 106.748C130.288 106.748 127.696 106.332 125.264 105.5C122.896 104.732 121.168 103.868 120.08 102.908V95.804C121.36 97.02 122.96 98.108 124.88 99.068C126.864 99.964 129.232 100.412 131.984 100.412C136.464 100.412 140.048 99.068 142.736 96.38C145.488 93.628 146.864 89.244 146.864 83.228C146.864 79.004 146.16 75.676 144.752 73.244C143.408 70.748 141.584 68.956 139.28 67.868C137.04 66.78 134.608 66.236 131.984 66.236C129.68 66.236 127.728 66.524 126.128 67.1C124.528 67.676 123.088 68.316 121.808 69.02V100.892H114.128V69.212C114.128 67.932 114.352 66.908 114.8 66.14C115.248 65.372 116.176 64.572 117.584 63.74C119.312 62.78 121.36 61.916 123.728 61.148C126.16 60.316 128.912 59.9 131.984 59.9C136.208 59.9 140.016 60.732 143.408 62.396C146.864 63.996 149.584 66.524 151.568 69.98C153.616 73.372 154.64 77.788 154.64 83.228C154.64 88.476 153.712 92.86 151.856 96.38C150.064 99.836 147.536 102.428 144.272 104.156C141.008 105.884 137.264 106.748 133.04 106.748ZM114.128 98.108L121.808 98.3V122.78C121.488 122.908 121.008 123.036 120.368 123.164C119.728 123.356 119.024 123.452 118.256 123.452C116.912 123.452 115.888 123.164 115.184 122.588C114.48 122.012 114.128 121.116 114.128 119.9V98.108ZM174.214 84.572H166.534V69.98C166.534 68.508 166.79 67.356 167.302 66.524C167.878 65.628 168.806 64.764 170.086 63.932C171.75 62.844 174.022 61.916 176.902 61.148C179.782 60.316 182.982 59.9 186.502 59.9C191.622 59.9 194.182 61.18 194.182 63.74C194.182 64.38 194.086 64.988 193.894 65.564C193.702 66.076 193.446 66.524 193.126 66.908C192.486 66.78 191.654 66.652 190.63 66.524C189.606 66.396 188.582 66.332 187.558 66.332C184.614 66.332 182.022 66.652 179.782 67.292C177.542 67.868 175.686 68.572 174.214 69.404V84.572ZM174.214 81.308V105.308C173.894 105.436 173.414 105.564 172.774 105.692C172.134 105.884 171.43 105.98 170.662 105.98C169.318 105.98 168.294 105.724 167.59 105.212C166.886 104.636 166.534 103.74 166.534 102.524V80.156L174.214 81.308ZM218.561 100.508C221.249 100.508 223.457 100.252 225.185 99.74C226.977 99.164 228.257 98.62 229.025 98.108V84.188L217.121 85.436C213.793 85.692 211.329 86.428 209.729 87.644C208.129 88.86 207.329 90.62 207.329 92.924C207.329 95.292 208.257 97.148 210.113 98.492C212.033 99.836 214.849 100.508 218.561 100.508ZM218.465 59.9C224.033 59.9 228.449 61.148 231.713 63.644C234.977 66.14 236.609 70.076 236.609 75.452V98.204C236.609 99.612 236.321 100.7 235.745 101.468C235.233 102.172 234.433 102.844 233.345 103.484C231.809 104.316 229.761 105.084 227.201 105.788C224.641 106.492 221.761 106.844 218.561 106.844C212.545 106.844 207.873 105.66 204.545 103.292C201.281 100.924 199.649 97.5 199.649 93.02C199.649 88.86 201.025 85.692 203.777 83.516C206.593 81.276 210.465 79.932 215.393 79.484L229.025 78.14V75.452C229.025 72.252 228.065 69.916 226.145 68.444C224.225 66.972 221.633 66.236 218.369 66.236C215.745 66.236 213.217 66.62 210.785 67.388C208.417 68.156 206.305 69.02 204.449 69.98C203.937 69.532 203.457 69.02 203.009 68.444C202.625 67.804 202.433 67.164 202.433 66.524C202.433 64.86 203.361 63.58 205.217 62.684C206.945 61.788 208.929 61.116 211.169 60.668C213.473 60.156 215.905 59.9 218.465 59.9ZM271.172 66.332C266.82 66.332 263.204 67.804 260.324 70.748C257.444 73.692 256.004 77.916 256.004 83.42C256.004 88.86 257.38 93.052 260.132 95.996C262.948 98.94 266.628 100.412 271.172 100.412C273.86 100.412 276.1 100.06 277.892 99.356C279.684 98.588 281.284 97.724 282.692 96.764C283.396 97.148 283.972 97.628 284.42 98.204C284.868 98.78 285.092 99.484 285.092 100.316C285.092 102.108 283.748 103.644 281.06 104.924C278.436 106.14 275.14 106.748 271.172 106.748C266.756 106.748 262.788 105.916 259.268 104.252C255.812 102.524 253.092 99.932 251.108 96.476C249.124 93.02 248.132 88.668 248.132 83.42C248.132 78.236 249.156 73.916 251.204 70.46C253.252 66.94 256.004 64.316 259.46 62.588C262.98 60.796 266.82 59.9 270.98 59.9C274.948 59.9 278.212 60.572 280.772 61.916C283.396 63.26 284.708 64.796 284.708 66.524C284.708 67.292 284.484 67.964 284.036 68.54C283.588 69.116 283.012 69.564 282.308 69.884C280.9 68.924 279.332 68.092 277.604 67.388C275.94 66.684 273.796 66.332 271.172 66.332ZM304.247 80.156V93.404C304.247 95.964 304.983 97.788 306.455 98.876C307.927 99.9 309.943 100.412 312.503 100.412C313.591 100.412 314.807 100.22 316.151 99.836C317.495 99.452 318.615 99.004 319.511 98.492C319.895 98.876 320.247 99.356 320.567 99.932C320.887 100.508 321.047 101.18 321.047 101.948C321.047 103.356 320.215 104.508 318.551 105.404C316.887 106.3 314.583 106.748 311.639 106.748C307.159 106.748 303.511 105.756 300.695 103.772C297.943 101.788 296.567 98.492 296.567 93.884V80.156H304.247ZM300.503 62.108H319.991C320.183 62.364 320.375 62.78 320.567 63.356C320.759 63.932 320.855 64.54 320.855 65.18C320.855 66.204 320.599 67.004 320.087 67.58C319.575 68.156 318.871 68.444 317.975 68.444H300.503V62.108ZM296.567 83.036V48.284C296.887 48.156 297.367 48.028 298.007 47.9C298.711 47.708 299.447 47.612 300.215 47.612C301.559 47.612 302.551 47.9 303.191 48.476C303.895 48.988 304.247 49.852 304.247 51.068V83.036H296.567ZM339.87 84.572H332.19V69.98C332.19 68.508 332.446 67.356 332.958 66.524C333.534 65.628 334.462 64.764 335.742 63.932C337.406 62.844 339.678 61.916 342.558 61.148C345.438 60.316 348.638 59.9 352.158 59.9C357.278 59.9 359.838 61.18 359.838 63.74C359.838 64.38 359.742 64.988 359.55 65.564C359.358 66.076 359.102 66.524 358.782 66.908C358.142 66.78 357.31 66.652 356.286 66.524C355.262 66.396 354.238 66.332 353.214 66.332C350.27 66.332 347.678 66.652 345.438 67.292C343.198 67.868 341.342 68.572 339.87 69.404V84.572ZM339.87 81.308V105.308C339.55 105.436 339.07 105.564 338.43 105.692C337.79 105.884 337.086 105.98 336.318 105.98C334.974 105.98 333.95 105.724 333.246 105.212C332.542 104.636 332.19 103.74 332.19 102.524V80.156L339.87 81.308ZM384.218 100.508C386.906 100.508 389.114 100.252 390.842 99.74C392.634 99.164 393.914 98.62 394.682 98.108V84.188L382.778 85.436C379.45 85.692 376.986 86.428 375.386 87.644C373.786 88.86 372.986 90.62 372.986 92.924C372.986 95.292 373.914 97.148 375.77 98.492C377.69 99.836 380.506 100.508 384.218 100.508ZM384.122 59.9C389.69 59.9 394.106 61.148 397.37 63.644C400.634 66.14 402.266 70.076 402.266 75.452V98.204C402.266 99.612 401.978 100.7 401.402 101.468C400.89 102.172 400.09 102.844 399.002 103.484C397.466 104.316 395.418 105.084 392.858 105.788C390.298 106.492 387.418 106.844 384.218 106.844C378.202 106.844 373.53 105.66 370.202 103.292C366.938 100.924 365.306 97.5 365.306 93.02C365.306 88.86 366.682 85.692 369.434 83.516C372.25 81.276 376.122 79.932 381.05 79.484L394.682 78.14V75.452C394.682 72.252 393.722 69.916 391.802 68.444C389.882 66.972 387.29 66.236 384.026 66.236C381.402 66.236 378.874 66.62 376.442 67.388C374.074 68.156 371.962 69.02 370.106 69.98C369.594 69.532 369.114 69.02 368.666 68.444C368.282 67.804 368.09 67.164 368.09 66.524C368.09 64.86 369.018 63.58 370.874 62.684C372.602 61.788 374.586 61.116 376.826 60.668C379.13 60.156 381.562 59.9 384.122 59.9ZM436.828 66.332C432.476 66.332 428.86 67.804 425.98 70.748C423.1 73.692 421.66 77.916 421.66 83.42C421.66 88.86 423.036 93.052 425.788 95.996C428.604 98.94 432.284 100.412 436.828 100.412C439.516 100.412 441.756 100.06 443.548 99.356C445.34 98.588 446.94 97.724 448.348 96.764C449.052 97.148 449.628 97.628 450.076 98.204C450.524 98.78 450.748 99.484 450.748 100.316C450.748 102.108 449.404 103.644 446.716 104.924C444.092 106.14 440.796 106.748 436.828 106.748C432.412 106.748 428.444 105.916 424.924 104.252C421.468 102.524 418.748 99.932 416.764 96.476C414.78 93.02 413.788 88.668 413.788 83.42C413.788 78.236 414.812 73.916 416.86 70.46C418.908 66.94 421.66 64.316 425.116 62.588C428.636 60.796 432.476 59.9 436.636 59.9C440.604 59.9 443.868 60.572 446.428 61.916C449.052 63.26 450.364 64.796 450.364 66.524C450.364 67.292 450.14 67.964 449.692 68.54C449.244 69.116 448.668 69.564 447.964 69.884C446.556 68.924 444.988 68.092 443.26 67.388C441.596 66.684 439.452 66.332 436.828 66.332ZM469.136 81.5L491.024 60.284C492.56 60.348 493.744 60.732 494.576 61.436C495.472 62.076 495.92 62.94 495.92 64.028C495.92 64.924 495.632 65.724 495.056 66.428C494.544 67.132 493.776 67.9 492.752 68.732L473.936 85.244L469.136 81.5ZM474.32 79.58L498.704 101.468C498.576 102.876 498.128 103.996 497.36 104.828C496.656 105.66 495.696 106.076 494.48 106.076C493.52 106.076 492.624 105.82 491.792 105.308C491.024 104.796 490.224 104.124 489.392 103.292L468.944 82.748L474.32 79.58ZM470 80.924V105.308C469.68 105.436 469.2 105.564 468.56 105.692C467.92 105.884 467.216 105.98 466.448 105.98C465.104 105.98 464.08 105.724 463.376 105.212C462.672 104.636 462.32 103.74 462.32 102.524V79.772L470 80.924ZM462.32 83.516V43.292C462.64 43.164 463.12 43.036 463.76 42.908C464.464 42.716 465.2 42.62 465.968 42.62C467.312 42.62 468.304 42.908 468.944 43.484C469.648 43.996 470 44.86 470 46.076V84.668L462.32 83.516Z" fill="#4D7C0F"/>
<defs>
<linearGradient id="paint0_linear_227_954" x1="14.7991" y1="97.3925" x2="55.7071" y2="97.3925" gradientUnits="userSpaceOnUse">
<stop stop-color="#40632F"/>
<stop offset="1" stop-color="#86C440"/>
</linearGradient>
<linearGradient id="paint1_linear_227_954" x1="0" y1="87.6111" x2="49.3299" y2="87.6111" gradientUnits="userSpaceOnUse">
<stop stop-color="#86C440"/>
<stop offset="0.0181" stop-color="#82BD40"/>
<stop offset="0.2048" stop-color="#68993B"/>
<stop offset="0.3954" stop-color="#568036"/>
<stop offset="0.5892" stop-color="#4A6F32"/>
<stop offset="0.7881" stop-color="#436630"/>
<stop offset="1" stop-color="#40632F"/>
</linearGradient>
<linearGradient id="paint2_linear_227_954" x1="78.9278" y1="59.5" x2="49.3298" y2="59.5" gradientUnits="userSpaceOnUse">
<stop stop-color="#86C440"/>
<stop offset="0.4449" stop-color="#5F8C39"/>
<stop offset="0.8056" stop-color="#496E32"/>
<stop offset="1" stop-color="#40632F"/>
</linearGradient>
<linearGradient id="paint3_linear_227_954" x1="56.7293" y1="102.967" x2="56.7293" y2="54.7174" gradientUnits="userSpaceOnUse">
<stop stop-color="#1BB680"/>
<stop offset="1" stop-color="#085F46"/>
</linearGradient>
<linearGradient id="paint4_linear_227_954" x1="78.9278" y1="98.5647" x2="55.707" y2="98.5647" gradientUnits="userSpaceOnUse">
<stop stop-color="#86C440"/>
<stop offset="0.4449" stop-color="#5F8C39"/>
<stop offset="0.8056" stop-color="#496E32"/>
<stop offset="1" stop-color="#40632F"/>
</linearGradient>
<clipPath id="clip0_227_954">
<rect width="78.9278" height="88" fill="white" transform="translate(0 37.5)"/>
</clipPath>
</defs>
</svg>
