<svg width="79" height="89" viewBox="0 0 79 89" fill="none" xmlns="http://www.w3.org/2000/svg">
<g clip-path="url(#clip0_110_606)">
<path d="M55.7431 65.9671C49.8803 72.3043 41.4584 76.2778 32.1005 76.2778C25.7432 76.2778 19.8186 74.4444 14.8351 71.2825V44.5073C14.8351 53.9575 22.5651 61.6184 32.1005 61.6184C41.636 61.6184 49.366 53.9575 49.366 44.5073V46.9444C49.366 54.0785 51.7375 60.6639 55.7431 65.9671Z" fill="url(#paint0_linear_110_606)"/>
<path fill-rule="evenodd" clip-rule="evenodd" d="M49.366 17.7174V44.5073C49.366 35.0571 41.636 27.3962 32.1006 27.3962C22.5676 27.3962 14.8388 35.0534 14.8351 44.4999V73.8333C14.8351 88.4999 0.0361328 88.4999 0.0361328 88.4999V44.4999C0.0361328 26.9501 14.3911 12.7222 32.1006 12.7222C38.458 12.7222 44.3825 14.5555 49.366 17.7174Z" fill="url(#paint1_linear_110_606)"/>
<path fill-rule="evenodd" clip-rule="evenodd" d="M78.9639 15.1667V29.8333H64.1649V44.5C64.1649 37.3659 61.7934 30.7806 57.7878 25.4773C55.4767 22.4169 52.6217 19.7842 49.366 17.7174V0.5C49.366 0.5 63.6408 0.5 64.1501 15.1667H78.9639Z" fill="url(#paint2_linear_110_606)"/>
<path fill-rule="evenodd" clip-rule="evenodd" d="M64.1649 44.5C64.1649 45.3225 64.1329 46.1377 64.0712 46.9444C63.5101 54.2545 60.4541 60.8741 55.7431 65.9671C51.7375 60.6639 49.366 54.0785 49.366 46.9444V17.7174C52.6217 19.7842 55.4767 22.4169 57.7878 25.4773C61.7934 30.7805 64.1649 37.3659 64.1649 44.5Z" fill="url(#paint3_linear_110_606)"/>
<path fill-rule="evenodd" clip-rule="evenodd" d="M64.165 44.5C64.165 46.0583 64.165 46.9444 64.165 46.9444H64.0713C64.133 46.1378 64.165 45.3226 64.165 44.5Z" fill="#ED1C24"/>
<path fill-rule="evenodd" clip-rule="evenodd" d="M78.964 63.8893V78.6293C69.4692 77.9143 61.1288 73.0988 55.7432 65.9671C60.4542 60.8741 63.5102 54.2546 64.0713 46.9444C64.1329 46.1378 64.165 45.3226 64.165 44.5C64.165 46.0583 64.165 46.9444 64.165 46.9444V46.9518C64.165 55.5721 70.5964 62.7038 78.964 63.8893Z" fill="url(#paint4_linear_110_606)"/>
</g>
<defs>
<linearGradient id="paint0_linear_110_606" x1="14.8351" y1="60.3925" x2="55.7431" y2="60.3925" gradientUnits="userSpaceOnUse">
<stop stop-color="#40632F"/>
<stop offset="1" stop-color="#86C440"/>
</linearGradient>
<linearGradient id="paint1_linear_110_606" x1="0.0361328" y1="50.6111" x2="49.366" y2="50.6111" gradientUnits="userSpaceOnUse">
<stop stop-color="#86C440"/>
<stop offset="0.0181" stop-color="#82BD40"/>
<stop offset="0.2048" stop-color="#68993B"/>
<stop offset="0.3954" stop-color="#568036"/>
<stop offset="0.5892" stop-color="#4A6F32"/>
<stop offset="0.7881" stop-color="#436630"/>
<stop offset="1" stop-color="#40632F"/>
</linearGradient>
<linearGradient id="paint2_linear_110_606" x1="78.9639" y1="22.5" x2="49.366" y2="22.5" gradientUnits="userSpaceOnUse">
<stop stop-color="#86C440"/>
<stop offset="0.4449" stop-color="#5F8C39"/>
<stop offset="0.8056" stop-color="#496E32"/>
<stop offset="1" stop-color="#40632F"/>
</linearGradient>
<linearGradient id="paint3_linear_110_606" x1="56.7655" y1="65.9671" x2="56.7655" y2="17.7174" gradientUnits="userSpaceOnUse">
<stop stop-color="#1BB680"/>
<stop offset="1" stop-color="#085F46"/>
</linearGradient>
<linearGradient id="paint4_linear_110_606" x1="78.964" y1="61.5647" x2="55.7432" y2="61.5647" gradientUnits="userSpaceOnUse">
<stop stop-color="#86C440"/>
<stop offset="0.4449" stop-color="#5F8C39"/>
<stop offset="0.8056" stop-color="#496E32"/>
<stop offset="1" stop-color="#40632F"/>
</linearGradient>
<clipPath id="clip0_110_606">
<rect width="78.9278" height="88" fill="white" transform="translate(0.0361328 0.5)"/>
</clipPath>
</defs>
</svg>
